<svg width="24" height="24" viewBox="0 0 24 24" fill="none" xmlns="http://www.w3.org/2000/svg">
<g clip-path="url(#clip0_958_136932)">
<path fill-rule="evenodd" clip-rule="evenodd" d="M3 5L12 1L21 5V11C21 16.55 17.16 21.74 12 23C6.84 21.74 3 16.55 3 11V5ZM10.3187 6.69375C9.85625 7.15625 9.625 7.71667 9.625 8.375H10.375C10.375 7.925 10.5333 7.54167 10.85 7.225C11.1667 6.90833 11.55 6.75 12 6.75C12.45 6.75 12.8333 6.90833 13.15 7.225C13.4667 7.54167 13.625 7.925 13.625 8.375V9.575H8.75C8.54167 9.575 8.36458 9.64792 8.21875 9.79375C8.07292 9.93958 8 10.1167 8 10.325V15.75C8 15.9583 8.07292 16.1354 8.21875 16.2812C8.36458 16.4271 8.54167 16.5 8.75 16.5H15.25C15.4583 16.5 15.6354 16.4271 15.7812 16.2812C15.9271 16.1354 16 15.9583 16 15.75V10.325C16 10.1167 15.9271 9.93958 15.7812 9.79375C15.6354 9.64792 15.4583 9.575 15.25 9.575H14.375V8.375C14.375 7.71667 14.1438 7.15625 13.6812 6.69375C13.2188 6.23125 12.6583 6 12 6C11.3417 6 10.7812 6.23125 10.3187 6.69375ZM11.3188 12.3813C11.5063 12.1771 11.7333 12.075 12 12.075C12.2667 12.075 12.4937 12.1771 12.6812 12.3813C12.8687 12.5854 12.9625 12.8125 12.9625 13.0625C12.9625 13.3208 12.8687 13.5417 12.6812 13.725C12.4937 13.9083 12.2667 14 12 14C11.7333 14 11.5063 13.9083 11.3188 13.725C11.1313 13.5417 11.0375 13.3208 11.0375 13.0625C11.0375 12.8125 11.1313 12.5854 11.3188 12.3813Z" fill="#1C7DDB"/>
</g>
<defs>
<clipPath id="clip0_958_136932">
<rect width="24" height="24" fill="white"/>
</clipPath>
</defs>
</svg>
