<svg width="24" height="24" viewBox="0 0 24 24" fill="none" xmlns="http://www.w3.org/2000/svg">
<g clip-path="url(#clip0_952_129788)">
<path fill-rule="evenodd" clip-rule="evenodd" d="M3 5L12 1L21 5V11C21 16.55 17.16 21.74 12 23C6.84 21.74 3 16.55 3 11V5ZM14.5 9.5H15C15.55 9.5 16 9.95 16 10.5V15.5C16 16.05 15.55 16.5 15 16.5H9C8.45 16.5 8 16.05 8 15.5V10.5C8 9.95 8.45 9.5 9 9.5H9.5V8.5C9.5 7.12 10.62 6 12 6C13.38 6 14.5 7.12 14.5 8.5V9.5ZM11 13C11 13.55 11.45 14 12 14C12.55 14 13 13.55 13 13C13 12.45 12.55 12 12 12C11.45 12 11 12.45 11 13ZM10.45 8.5V9.5H13.55V8.5C13.55 7.645 12.855 6.95 12 6.95C11.145 6.95 10.45 7.645 10.45 8.5Z" fill="#F0AB00"/>
</g>
<defs>
<clipPath id="clip0_952_129788">
<rect width="24" height="24" fill="white"/>
</clipPath>
</defs>
</svg>
